<svg xmlns="http://www.w3.org/2000/svg" xmlns:xlink="http://www.w3.org/1999/xlink" width="200" zoomAndPan="magnify" viewBox="85 11 1330 1478" height="222" preserveAspectRatio="xMidYMid meet" version="1.0"><defs><clipPath id="f968c50a26"><path d="M 84.921875 10.835938 L 1415.070312 10.835938 L 1415.070312 1489.160156 L 84.921875 1489.160156 Z M 84.921875 10.835938 " clip-rule="nonzero"/></clipPath></defs><g clip-path="url(#f968c50a26)"><path fill="#000000" d="M 671.382812 702.585938 L 567.039062 702.585938 L 510.671875 576.8125 L 671.382812 576.8125 Z M 1316.128906 230.933594 L 1415.070312 10.824219 L 84.921875 10.824219 L 182.863281 230.933594 L 671.382812 230.933594 L 671.382812 372.429688 L 247.011719 372.429688 L 395.542969 702.585938 L 395.417969 702.585938 L 487.476562 906.980469 L 836.996094 906.980469 L 745.277344 1095.925781 L 709.808594 1017.03125 L 537.304688 1017.03125 L 619.527344 1199.738281 L 619.421875 1199.789062 L 655.730469 1280.390625 L 655.691406 1280.472656 L 749.765625 1489.160156 L 1104.15625 702.585938 L 828.609375 702.585938 L 828.609375 576.8125 L 1153.746094 576.8125 L 1252.976562 372.429688 L 828.609375 372.429688 L 828.609375 230.933594 L 1316.128906 230.933594 " fill-opacity="1" fill-rule="nonzero"/></g></svg>