<svg xmlns="http://www.w3.org/2000/svg" width="120" height="120" viewBox="0 0 120 120">
  <rect width="120" height="120" rx="24" ry="24" fill="#F5F5F5"/>
  <g transform="translate(10, 10) scale(0.0667)">
    <path fill="#202020" d="M 1407.125 106.382812 C 1388.125 76.792969 1357.417969 51.667969 1314.980469 31.007812 C 1272.539062 10.347656 1224.519531 0 1170.921875 0 L 765.261719 0 L 765.261719 632.09375 L 734.707031 607.992188 L 734.707031 0 L 329.042969 0 C 275.476562 0 227.457031 10.347656 185.015625 31.007812 C 142.578125 51.667969 111.871094 76.792969 92.871094 106.382812 C 73.898438 135.972656 64.394531 171.144531 64.394531 211.894531 C 64.394531 252.675781 81.710938 293.695312 116.335938 334.988281 L 129.757812 326.632812 C 111.871094 292.035156 102.945312 258.796875 102.945312 226.976562 C 102.945312 195.152344 113.5625 164.71875 134.765625 135.671875 C 174.972656 78.753906 239.761719 50.25 329.074219 50.25 L 679.175781 50.25 L 679.175781 159.863281 C 634.140625 173.347656 595.804688 197.085938 564.195312 231.078125 C 560.847656 234.636719 557.648438 238.257812 554.542969 241.9375 C 536.355469 280.214844 527.125 322.652344 528.210938 366.027344 C 530.230469 445.144531 566.398438 519.40625 627.417969 569.777344 L 980.957031 861.511719 C 1027.195312 899.667969 1064.054688 945.96875 1090.507812 999.144531 C 1115.964844 1050.332031 1130.625 1105.378906 1134.03125 1162.75 C 1135.722656 1191.011719 1134.605469 1219.003906 1130.773438 1246.601562 C 1141.664062 1212.96875 1147.121094 1177.378906 1147.121094 1139.855469 C 1147.121094 1002.523438 1085.710938 885.25 962.886719 788.09375 L 820.851562 676.011719 L 820.851562 200.039062 C 858.496094 206.042969 891.070312 220.28125 918.488281 242.8125 C 955.890625 273.515625 975.164062 315.683594 976.28125 369.253906 L 993.019531 369.253906 L 989.671875 163.210938 L 922.679688 163.210938 C 886.90625 155.609375 852.972656 150.601562 820.851562 148.191406 L 820.851562 50.28125 L 1170.953125 50.28125 C 1260.292969 50.28125 1325.054688 78.753906 1365.261719 135.703125 C 1386.464844 164.75 1397.082031 195.183594 1397.082031 227.003906 C 1397.082031 258.828125 1388.125 292.066406 1370.269531 326.664062 L 1383.691406 335.019531 C 1418.316406 293.726562 1435.628906 252.703125 1435.628906 211.925781 C 1435.601562 171.144531 1426.097656 135.972656 1407.125 106.382812 Z M 679.175781 564.136719 L 652.964844 543.476562 C 603.796875 504.414062 579.246094 455.550781 579.246094 396.914062 C 579.246094 338.277344 598.21875 290.257812 636.195312 252.855469 C 649.40625 239.824219 663.730469 229.085938 679.175781 220.609375 Z M 1082.0625 1320.257812 C 1082 1320.410156 1081.941406 1320.589844 1081.878906 1320.742188 C 1070.78125 1351.808594 1051.929688 1379.558594 1027.648438 1401.878906 C 1026.710938 1402.753906 1025.777344 1403.597656 1024.8125 1404.445312 C 954.472656 1468.117188 860.664062 1499.941406 743.421875 1499.941406 C 671.9375 1499.941406 608.292969 1486.515625 552.460938 1459.734375 C 447.496094 1410.597656 384.394531 1326.863281 363.1875 1208.476562 C 359.8125 1190.621094 358.152344 1167.996094 358.152344 1140.640625 C 358.152344 1113.25 365.964844 1075.847656 381.589844 1028.402344 C 397.214844 980.957031 427.375 933.238281 472.046875 885.191406 L 487.128906 896.921875 C 429.035156 972.875 400.019531 1054.945312 400.019531 1143.171875 C 400.019531 1248.171875 444.117188 1329.699219 532.34375 1387.734375 C 583.710938 1422.359375 642.074219 1439.644531 707.378906 1439.644531 C 772.679688 1439.644531 829.386719 1426.824219 877.40625 1401.125 C 967.835938 1354.222656 1018.660156 1275.496094 1029.847656 1164.921875 C 1030.964844 1157.109375 1031.539062 1149.296875 1031.539062 1141.484375 C 1031.539062 1100.191406 1020.078125 1055.488281 997.183594 1007.46875 C 974.289062 959.453125 937.160156 915.324219 885.792969 875.117188 L 820.789062 823.839844 L 820.789062 1139.945312 C 821.9375 1167.875 832.824219 1191.917969 853.488281 1211.976562 C 874.148438 1232.09375 898.972656 1242.136719 928.019531 1242.136719 L 949.796875 1242.136719 L 949.796875 1258.878906 L 765.261719 1258.878906 L 765.261719 780.074219 L 734.707031 755.972656 L 734.707031 1258.9375 L 550.167969 1258.9375 L 550.167969 1242.199219 L 571.945312 1242.199219 C 600.992188 1242.199219 625.816406 1232.152344 646.480469 1212.035156 C 667.140625 1191.976562 678.03125 1167.9375 679.175781 1140.007812 L 679.175781 712.144531 L 584.285156 637.28125 C 518.40625 585.945312 485.441406 519.464844 485.441406 437.933594 C 485.441406 404.605469 489.84375 373.386719 498.589844 344.277344 C 498.230469 351.757812 498.136719 359.238281 498.320312 366.78125 C 500.550781 454.523438 540.667969 536.929688 608.382812 592.792969 L 961.921875 884.527344 C 1004.90625 919.996094 1039.167969 963.039062 1063.753906 1012.417969 C 1087.398438 1059.984375 1101.035156 1111.171875 1104.199219 1164.5 C 1107.367188 1217.828125 1099.917969 1270.21875 1082.0625 1320.257812 Z M 1082.0625 1320.257812 " fill-opacity="1" fill-rule="nonzero"/>
  </g>
</svg>
